<svg xmlns="http://www.w3.org/2000/svg"
 xmlns:xlink="http://www.w3.org/1999/xlink"
 width="45px" height="30px"  viewBox="0 0 45 30">
<path fill-rule="evenodd"  fill="#ffc80a"
 d="M19.937317,1.9970703 C10.045166,1.9970703 1.9996948,10.071045 1.9996948,19.997559 C1.9996948,20.050049 2.00885,20.100342 2.0150146,20.150635 C2.0056152,20.312256 1.9996948,20.474365 1.9996948,20.63794 C1.9996948,25.246582 5.7349854,28.995361 10.32666,28.995361 C14.919189,28.995361 18.654602,25.246582 18.654602,20.63794 C18.654602,16.029297 14.919189,12.28125 10.32666,12.28125 C8.738953,12.28125 7.2540283,12.729492 5.9901733,13.506592 C8.438599,8.232666 13.768921,4.564209 19.937317,4.564209 C20.644348,4.564209 21.220642,3.9938965 21.220642,3.2763672 C21.220642,2.567627 20.644348,1.9970703 19.937317,1.9970703 ZM41.717407,1.9970703 C31.825317,1.9970703 23.77893,10.071045 23.77893,19.997559 C23.77893,20.04956 23.78833,20.099121 23.794312,20.149902 C23.784973,20.31128 23.77893,20.474121 23.77893,20.63794 C23.77893,25.246582 27.514404,28.995361 32.106873,28.995361 C36.6994,28.995361 40.44104,25.246582 40.44104,20.63794 C40.44104,16.029297 36.6994,12.28125 32.106873,12.28125 C30.522278,12.28125 29.04004,12.727539 27.777588,13.501465 C30.225342,8.230225 35.551086,4.564209 41.717407,4.564209 C42.430664,4.564209 43.000122,3.9938965 43.000122,3.2763672 C43.000122,2.567627 42.430664,1.9970703 41.717407,1.9970703 Z"/>
</svg>